<?xml version="1.0" standalone="no"?>
<!DOCTYPE svg PUBLIC "-//W3C//DTD SVG 20010904//EN"
 "http://www.w3.org/TR/2001/REC-SVG-20010904/DTD/svg10.dtd">
<svg version="1.0" xmlns="http://www.w3.org/2000/svg"
 width="342.000000pt" height="220.000000pt" viewBox="0 0 342.000000 220.000000"
 preserveAspectRatio="xMidYMid meet">
<metadata>
Created by potrace 1.15, written by Peter Selinger 2001-2017
</metadata>
<g transform="translate(0.000000,220.000000) scale(0.100000,-0.100000)"
fill="#000000" stroke="none">
<path d="M1209 2180 c-83 -44 -125 -128 -116 -231 5 -63 23 -102 63 -143 49
-48 82 -61 165 -61 67 0 81 3 124 30 88 54 126 165 94 278 -13 46 -67 109
-113 131 -49 23 -170 21 -217 -4z"/>
<path d="M269 2151 l-29 -29 0 -311 0 -311 -94 0 c-87 0 -95 -2 -120 -26 -25
-26 -26 -31 -26 -138 0 -128 9 -149 68 -166 20 -5 67 -10 105 -10 l67 0 0
-409 c0 -231 4 -432 10 -462 23 -125 89 -212 197 -262 95 -43 445 -34 488 13
15 16 17 37 13 135 -4 144 -5 144 -127 143 -102 -1 -134 10 -161 54 -19 31
-20 51 -20 411 l0 377 240 0 240 0 0 -530 c0 -568 0 -574 49 -600 11 -5 81
-10 156 -10 l137 0 29 29 29 29 0 682 0 682 -29 29 -29 29 -411 0 -410 0 -3
316 -3 316 -28 24 c-27 23 -35 24 -168 24 l-141 0 -29 -29z"/>
<path d="M2092 2164 c-141 -37 -215 -119 -248 -273 -8 -41 -14 -128 -14 -228
l0 -163 -94 0 c-87 0 -95 -2 -120 -26 -25 -26 -26 -31 -26 -138 0 -128 9 -149
68 -166 20 -5 67 -10 105 -10 l67 0 0 -541 0 -541 29 -29 29 -29 141 0 c133 0
141 1 168 24 l28 24 3 546 2 546 215 0 215 0 0 -544 0 -543 26 -27 c26 -26 29
-26 165 -26 133 0 138 1 168 26 l31 26 0 544 0 544 135 0 c207 0 235 21 235
175 0 83 -17 137 -48 154 -12 7 -81 11 -166 11 l-146 0 0 125 c0 147 9 174 73
207 33 17 64 23 147 26 141 5 140 4 140 147 0 103 -2 113 -23 133 -32 30 -107
42 -268 42 -201 0 -282 -22 -362 -99 -86 -81 -107 -159 -107 -398 l0 -183
-215 0 -215 0 0 124 c0 111 2 126 23 157 36 54 86 73 210 79 137 6 137 6 137
147 0 96 -2 106 -23 127 -14 14 -46 28 -76 35 -75 16 -344 13 -409 -5z"/>
</g>
</svg>
